<?xml version="1.0" standalone="no"?>
<!DOCTYPE svg PUBLIC "-//W3C//DTD SVG 20010904//EN"
 "http://www.w3.org/TR/2001/REC-SVG-20010904/DTD/svg10.dtd">
<svg version="1.0" xmlns="http://www.w3.org/2000/svg"
 width="500.000000pt" height="500.000000pt" viewBox="0 0 500.000000 500.000000"
 preserveAspectRatio="xMidYMid meet">
<g transform="translate(0.000000,500.000000) scale(0.100000,-0.100000)"
fill="#FFFFFF" stroke="none">
<path d="M624 3581 c-97 -33 -154 -114 -154 -218 1 -164 147 -268 312 -223 54
15 123 87 141 147 18 60 13 132 -13 183 -21 41 -79 96 -117 111 -46 17 -118
18 -169 0z"/>
<path d="M1197 3549 c-65 -22 -109 -67 -112 -112 -1 -19 34 -176 77 -349 44
-172 82 -324 85 -338 3 -14 41 -167 85 -340 44 -173 81 -323 83 -333 2 -10 7
-27 10 -37 3 -10 8 -27 10 -37 2 -10 40 -164 85 -343 45 -179 83 -329 84 -335
1 -5 8 -37 16 -70 18 -82 48 -119 104 -134 96 -24 222 -4 267 43 20 21 43 88
74 216 2 8 76 307 166 663 l162 648 41 -3 c40 -3 41 -4 53 -53 6 -27 17 -70
23 -95 7 -25 13 -52 15 -60 2 -8 11 -44 20 -80 9 -36 19 -72 20 -80 2 -8 18
-69 35 -135 17 -66 33 -127 35 -135 2 -8 15 -62 30 -120 15 -58 29 -113 31
-123 2 -10 6 -27 9 -37 3 -10 7 -27 10 -37 2 -10 22 -92 45 -183 23 -91 43
-172 45 -180 2 -8 13 -55 26 -105 26 -102 45 -127 116 -144 55 -14 218 -13
253 2 45 20 81 49 92 76 7 18 12 347 13 1031 l3 1005 394 0 c456 0 441 3 491
-95 l27 -55 -2 -755 -3 -755 -28 -47 c-47 -81 -53 -82 -369 -88 -276 -5 -276
-5 -302 -29 -34 -32 -49 -91 -41 -155 6 -56 23 -88 60 -112 21 -14 63 -15 342
-12 293 4 322 6 370 25 75 30 153 77 206 123 53 47 112 157 123 230 4 25 8
398 9 830 1 845 1 848 -51 955 -39 80 -105 139 -209 191 -49 24 -114 49 -144
54 -76 14 -1074 13 -1126 -1 -53 -14 -91 -52 -103 -102 -6 -26 -10 -268 -10
-635 0 -326 -1 -595 -4 -597 -2 -2 -28 93 -57 213 -226 930 -263 1066 -290
1095 -69 70 -292 61 -332 -15 -9 -17 -46 -153 -64 -238 -2 -8 -11 -46 -20 -85
-9 -38 -18 -77 -20 -85 -48 -206 -139 -589 -150 -630 -8 -30 -16 -66 -19 -80
-2 -14 -18 -81 -34 -150 -17 -69 -41 -168 -53 -220 -13 -52 -24 -97 -24 -100
-1 -3 -5 -24 -10 -48 -4 -23 -9 -41 -11 -39 -3 3 -33 113 -48 177 -2 8 -25 96
-51 194 -25 99 -84 333 -131 520 -46 188 -100 404 -120 480 -20 77 -37 148
-39 158 -24 125 -53 179 -105 200 -41 16 -110 15 -163 -3z"/>
<path d="M632 2971 c-38 -10 -68 -35 -87 -71 -11 -21 -13 -190 -13 -852 0
-928 -4 -875 72 -912 52 -25 141 -26 195 -2 78 36 74 -15 73 911 -1 908 1 877
-63 910 -37 20 -129 28 -177 16z"/>
</g>
</svg>
